<svg width="90" height="90" viewBox="0 0 90 90" fill="none" xmlns="http://www.w3.org/2000/svg">
<rect width="90" height="90" rx="15" fill="#D9D9D9"/>
<path d="M15.96 23.2H22.744L25.88 57.632H26.008L29.336 23.2H37.016L40.344 57.632H40.472L43.608 23.2H49.688L45.144 68H36.376L33.176 37.792H33.048L29.848 68H20.504L15.96 23.2ZM62.401 68.64C58.9877 68.64 56.4063 67.68 54.657 65.76C52.9077 63.7973 52.033 61.0027 52.033 57.376V54.816H58.689V57.888C58.689 60.7893 59.905 62.24 62.337 62.24C63.5317 62.24 64.4277 61.8987 65.025 61.216C65.665 60.4907 65.985 59.3387 65.985 57.76C65.985 55.8827 65.5583 54.24 64.705 52.832C63.8517 51.3813 62.273 49.6533 59.969 47.648C57.0677 45.088 55.041 42.784 53.889 40.736C52.737 38.6453 52.161 36.2987 52.161 33.696C52.161 30.1547 53.057 27.424 54.849 25.504C56.641 23.5413 59.2437 22.56 62.657 22.56C66.0277 22.56 68.5663 23.5413 70.273 25.504C72.0223 27.424 72.897 30.1973 72.897 33.824V35.68H66.241V33.376C66.241 31.84 65.9423 30.7307 65.345 30.048C64.7477 29.3227 63.873 28.96 62.721 28.96C60.3743 28.96 59.201 30.3893 59.201 33.248C59.201 34.8693 59.6277 36.384 60.481 37.792C61.377 39.2 62.977 40.9067 65.281 42.912C68.225 45.472 70.2517 47.7973 71.361 49.888C72.4703 51.9787 73.025 54.432 73.025 57.248C73.025 60.9173 72.1077 63.7333 70.273 65.696C68.481 67.6587 65.857 68.64 62.401 68.64Z" fill="#2C3333"/>
</svg>
